# xmcd CD database file generated by Grip 3.0.7
# 
# Track frame offsets:
#       150
#       20593
#       37913
#       56480
#       80325
#       90397
#       109970
#       124840
#       144794
#       159533
#       183108
#       202436
# 
# Disc length: 2928 seconds
# 
# Revision: 0
# Processed by: cddbd v1.5.1PL0 Copyright (c) Steve Scherf et al.
# Submitted via: Grip 3.0.7
# 
DISCID=990b6e0c
DTITLE=R.E.M. - Automatic for the people
DYEAR=1992
DGENRE=Rock
TTITLE0=Drive
TTITLE1=Try not to breathe
TTITLE2=The sidewinder sleeps tonite
TTITLE3=Everybody hurts
TTITLE4=New Orleans instrumental no. 1
TTITLE5=Sweetness follows
TTITLE6=Monty got a raw deal
TTITLE7=Ignoreland
TTITLE8=Star me kitten
TTITLE9=Man on the moon
TTITLE10=Nightswimming
TTITLE11=Find the river
EXTD=
EXTT0=
EXTT1=
EXTT2=
EXTT3=
EXTT4=
EXTT5=
EXTT6=
EXTT7=
EXTT8=
EXTT9=
EXTT10=
EXTT11=
PLAYORDER=
